<svg xmlns="http://www.w3.org/2000/svg" viewBox="0 0 662 141.92"><defs><style>.cls-1{fill:#1d1d1b;}</style></defs><title>Asset 1</title><g id="Layer_2" data-name="Layer 2"><g id="Layer_1-2" data-name="Layer 1"><g id="_Group_" data-name="&lt;Group&gt;"><polygon id="_Path_" data-name="&lt;Path&gt;" class="cls-1" points="0 118.72 9.17 118.72 9.17 141.6 11.08 141.6 11.08 118.72 20.25 118.72 20.25 117.15 0 117.15 0 118.72"/><polygon id="_Path_2" data-name="&lt;Path&gt;" class="cls-1" points="48.58 128.44 32.27 128.44 32.27 117.15 30.38 117.15 30.38 141.6 32.27 141.6 32.27 130.01 48.58 130.01 48.58 141.6 50.49 141.6 50.49 117.15 48.58 117.15 48.58 128.44"/><polygon id="_Path_3" data-name="&lt;Path&gt;" class="cls-1" points="65.22 130.1 76.37 130.1 76.37 128.51 65.22 128.51 65.22 118.72 76.67 118.72 76.67 117.15 63.33 117.15 63.33 141.6 76.94 141.6 76.94 140.02 65.22 140.02 65.22 130.1"/><polygon id="_Path_4" data-name="&lt;Path&gt;" class="cls-1" points="105.09 141.6 106.98 141.6 106.98 129.59 116.63 129.59 116.63 128.02 106.98 128.02 106.98 118.72 117.67 118.72 117.67 117.15 105.09 117.15 105.09 141.6"/><path id="_Compound_Path_" data-name="&lt;Compound Path&gt;" class="cls-1" d="M135.17,117l-11.3,24.63h2l3.85-8.45h12l3.87,8.45h2L136.21,117Zm-4.75,14.6,5.25-11.52,5.27,11.52Z"/><path id="_Path_5" data-name="&lt;Path&gt;" class="cls-1" d="M167.09,129.73A36.08,36.08,0,0,0,163,128a8.46,8.46,0,0,1-3.66-2.19,4.06,4.06,0,0,1-.87-2.55,4.3,4.3,0,0,1,1.48-3.32,5.28,5.28,0,0,1,3.68-1.34,11.31,11.31,0,0,1,5.48,1.88v-2.08a11.6,11.6,0,0,0-5.65-1.55,7.14,7.14,0,0,0-5,1.9,6,6,0,0,0-2.06,4.59,5.45,5.45,0,0,0,.85,3.18,6,6,0,0,0,2.07,1.9,38.63,38.63,0,0,0,4,1.75,8.54,8.54,0,0,1,3.76,2.34,4.73,4.73,0,0,1-.57,6.27,5.2,5.2,0,0,1-3.67,1.41q-2.61,0-6.16-2.61v2.22a11.41,11.41,0,0,0,6.27,2.14,7.08,7.08,0,0,0,5-1.95,6.29,6.29,0,0,0,2.06-4.76,6.05,6.05,0,0,0-.89-3.45A6.26,6.26,0,0,0,167.09,129.73Z"/><polygon id="_Path_6" data-name="&lt;Path&gt;" class="cls-1" points="199.8 128.44 183.48 128.44 183.48 117.15 181.59 117.15 181.59 141.6 183.48 141.6 183.48 130.01 199.8 130.01 199.8 141.6 201.7 141.6 201.7 117.15 199.8 117.15 199.8 128.44"/><rect id="_Path_7" data-name="&lt;Path&gt;" class="cls-1" x="214.47" y="117.15" width="1.89" height="24.45"/><path id="_Compound_Path_2" data-name="&lt;Compound Path&gt;" class="cls-1" d="M241,116.83a12.68,12.68,0,0,0-9.17,3.65,12.42,12.42,0,0,0,0,17.79,13.38,13.38,0,0,0,18.37,0,12.38,12.38,0,0,0,0-17.79A12.75,12.75,0,0,0,241,116.83ZM248.78,137a11.12,11.12,0,0,1-15.47,0,10.83,10.83,0,0,1,0-15.33,11.12,11.12,0,0,1,15.47,0,10.93,10.93,0,0,1,0,15.33Z"/><polygon id="_Path_8" data-name="&lt;Path&gt;" class="cls-1" points="285.85 138.52 267.31 117.15 265.7 117.15 265.7 141.6 267.6 141.6 267.6 120.23 286.18 141.6 287.74 141.6 287.74 117.15 285.85 117.15 285.85 138.52"/><path id="_Path_9" data-name="&lt;Path&gt;" class="cls-1" d="M327.09,129.73A36.08,36.08,0,0,0,323,128a8.4,8.4,0,0,1-3.66-2.19,4.06,4.06,0,0,1-.87-2.55,4.32,4.32,0,0,1,1.47-3.32,5.32,5.32,0,0,1,3.69-1.34,11.34,11.34,0,0,1,5.48,1.88v-2.08a11.61,11.61,0,0,0-5.66-1.55,7.13,7.13,0,0,0-5,1.9,6,6,0,0,0-2.06,4.59,5.45,5.45,0,0,0,.85,3.18,6,6,0,0,0,2.06,1.9,40,40,0,0,0,4.06,1.75,8.6,8.6,0,0,1,3.76,2.34,4.76,4.76,0,0,1-.57,6.27,5.2,5.2,0,0,1-3.67,1.41q-2.61,0-6.16-2.61v2.22a11.41,11.41,0,0,0,6.27,2.14,7.08,7.08,0,0,0,5-1.95,6.29,6.29,0,0,0,2.06-4.76,6.05,6.05,0,0,0-.89-3.45A6.34,6.34,0,0,0,327.09,129.73Z"/><polygon id="_Path_10" data-name="&lt;Path&gt;" class="cls-1" points="343.52 130.1 354.67 130.1 354.67 128.51 343.52 128.51 343.52 118.72 354.97 118.72 354.97 117.15 341.62 117.15 341.62 141.6 355.24 141.6 355.24 140.02 343.52 140.02 343.52 130.1"/><path id="_Compound_Path_3" data-name="&lt;Compound Path&gt;" class="cls-1" d="M374.91,117,363.6,141.6h2l3.85-8.45h12l3.87,8.45h2L376,117Zm-4.75,14.6,5.25-11.52,5.27,11.52Z"/><path id="_Compound_Path_4" data-name="&lt;Compound Path&gt;" class="cls-1" d="M407.09,129.42c3.1-1.14,4.66-3.13,4.66-5.95a5.67,5.67,0,0,0-2.09-4.62,9.31,9.31,0,0,0-6-1.7h-6.26V141.6h1.88V129.87h3.31a6.08,6.08,0,0,1,3.48.83,16.31,16.31,0,0,1,3.33,4.2l4.26,6.7h2.24l-5.54-8.45C409,131.05,407.89,129.8,407.09,129.42Zm-3.76-1.12h-4.07v-9.58h4A7.83,7.83,0,0,1,408,120a4.17,4.17,0,0,1,1.67,3.52,4.22,4.22,0,0,1-1.64,3.55A7.7,7.7,0,0,1,403.33,128.3Z"/><path id="_Path_11" data-name="&lt;Path&gt;" class="cls-1" d="M429.1,137.14a10.37,10.37,0,0,1-3.08-7.72,10.59,10.59,0,0,1,3.06-7.74,10.3,10.3,0,0,1,7.62-3.1,18.41,18.41,0,0,1,8.71,2.37v-2.07a20.64,20.64,0,0,0-8.59-2,12.67,12.67,0,0,0-9.05,3.61,12.53,12.53,0,0,0-.08,17.9,12.92,12.92,0,0,0,9.31,3.58,18.42,18.42,0,0,0,8.66-2.3v-2a18.74,18.74,0,0,1-8.7,2.51A10.77,10.77,0,0,1,429.1,137.14Z"/><polygon id="_Path_12" data-name="&lt;Path&gt;" class="cls-1" points="474.69 128.44 458.38 128.44 458.38 117.15 456.49 117.15 456.49 141.6 458.38 141.6 458.38 130.01 474.69 130.01 474.69 141.6 476.6 141.6 476.6 117.15 474.69 117.15 474.69 128.44"/><polygon id="_Path_13" data-name="&lt;Path&gt;" class="cls-1" points="508.45 130.1 519.6 130.1 519.6 128.51 508.45 128.51 508.45 118.72 519.9 118.72 519.9 117.15 506.57 117.15 506.57 141.6 520.18 141.6 520.18 140.02 508.45 140.02 508.45 130.1"/><polygon id="_Path_14" data-name="&lt;Path&gt;" class="cls-1" points="551.35 138.52 532.8 117.15 531.2 117.15 531.2 141.6 533.09 141.6 533.09 120.23 551.68 141.6 553.24 141.6 553.24 117.15 551.35 117.15 551.35 138.52"/><path id="_Path_15" data-name="&lt;Path&gt;" class="cls-1" d="M579.91,132.06h5.16v6.6a14.48,14.48,0,0,1-6.71,1.51,11.11,11.11,0,0,1-8.27-3.08,10.82,10.82,0,0,1,7.75-18.51,17.44,17.44,0,0,1,8.66,2.47v-2.13a20.2,20.2,0,0,0-8.38-2.09,13,13,0,0,0-9.39,3.57,12.51,12.51,0,0,0,.07,17.91,13.28,13.28,0,0,0,9.49,3.61,19.91,19.91,0,0,0,8.68-2.07v-9.37h-7.06Z"/><rect id="_Path_16" data-name="&lt;Path&gt;" class="cls-1" x="598.92" y="117.15" width="1.89" height="24.45"/><polygon id="_Path_17" data-name="&lt;Path&gt;" class="cls-1" points="633.65 138.52 615.11 117.15 613.51 117.15 613.51 141.6 615.4 141.6 615.4 120.23 633.99 141.6 635.54 141.6 635.54 117.15 633.65 117.15 633.65 138.52"/><polygon id="_Path_18" data-name="&lt;Path&gt;" class="cls-1" points="650.28 140.02 650.28 130.1 661.42 130.1 661.42 128.51 650.28 128.51 650.28 118.72 661.72 118.72 661.72 117.15 648.38 117.15 648.38 141.6 662 141.6 662 140.02 650.28 140.02"/><polygon id="_Path_19" data-name="&lt;Path&gt;" class="cls-1" points="31.34 80.95 31.34 80.95 31.34 80.95 42.84 80.95 42.84 11.1 70.68 11.1 70.68 11.1 70.68 11.1 70.68 0.92 3.95 0.92 3.95 0.92 3.95 0.92 3.95 11.1 31.34 11.1 31.34 80.95"/><path id="_Compound_Path_5" data-name="&lt;Compound Path&gt;" class="cls-1" d="M163.2,81h0l-28.67-64.3L127.37.57h-8l-2.06,4.82L85,81H96.76l3.42-8.13,6.56-15.56h34.1l6.75,15,3.9,8.67H163.2ZM111.29,47.09l11.95-28.95,12.89,29Z"/><path id="_Path_20" data-name="&lt;Path&gt;" class="cls-1" d="M252.78,41.59H226V51.78h15.38V68.43l-1.08.34q-9.56,3.15-16.42,3.15-14.13,0-23.1-8.64t-9-22.26a29.68,29.68,0,0,1,9-21.91,30.08,30.08,0,0,1,22.07-8.93q14.07,0,28.37,8.3V6.81a103.68,103.68,0,0,0-15.33-5.35A54.71,54.71,0,0,0,223,0q-18.53,0-30.83,11.9T179.92,41.71a38.37,38.37,0,0,0,11.86,28.58q11.88,11.58,31.72,11.58a72.87,72.87,0,0,0,29.28-6.41Z"/><polygon id="_Path_21" data-name="&lt;Path&gt;" class="cls-1" points="363.8 81.3 363.8 81.3 363.8 81.3 366.32 81.3 398.66 1.03 398.66 1.03 398.66 1.03 387.24 1.03 379.62 20.26 365.42 56.12 343.12 1.03 332.3 1.03 332.3 1.03 332.3 1.03 312.67 49.77 310.1 56.12 298.95 28.24 288.06 1.03 276.52 1.03 276.52 1.03 276.52 1.03 298.46 55.64 308.76 81.3 308.76 81.3 308.76 81.3 311.22 81.3 319.95 59.83 337.65 16.31 350.55 48.36 363.8 81.3"/><path id="_Compound_Path_6" data-name="&lt;Compound Path&gt;" class="cls-1" d="M490.43,81,471.14,37.69,454.59.57h-8L412.23,81H424l10-23.68h34.1L478.72,81h11.71ZM438.51,47.09l12-28.95,12.89,29Z"/><polygon id="_Path_22" data-name="&lt;Path&gt;" class="cls-1" points="562.97 70.54 527.05 70.54 527.05 1.03 515.63 1.03 515.63 80.96 562.97 80.96 562.97 80.95 562.97 80.95 562.97 70.54 562.97 70.54 562.97 70.54"/><polygon id="_Path_23" data-name="&lt;Path&gt;" class="cls-1" points="659.33 80.06 659.34 80.06 642.24 63.44 616.16 38.07 635.97 16.39 650.82 0.14 650.81 0.14 650.81 0.14 636.52 0.14 623.34 14.47 602.9 36.69 602.9 0.14 591.45 0.14 591.45 80.06 591.45 80.06 591.45 80.06 602.89 80.06 602.89 80.06 602.9 80.06 602.9 40.59 635.7 72.3 643.72 80.06 643.72 80.06 643.72 80.06 659.33 80.06 659.33 80.06"/></g></g></g></svg>